<svg width="28" height="28" viewBox="0 0 28 28" fill="none" xmlns="http://www.w3.org/2000/svg">
<path d="M19.8334 1.16669L24.5 5.83335L19.8334 10.5" stroke="#2C33CD" stroke-width="1.16667" stroke-linecap="round" stroke-linejoin="round"/>
<path d="M3.5 12.8333V10.5C3.5 9.2623 3.99167 8.07532 4.86683 7.20015C5.742 6.32498 6.92899 5.83331 8.16667 5.83331H24.5" stroke="#2C33CD" stroke-width="1.16667" stroke-linecap="round" stroke-linejoin="round"/>
<path d="M8.16667 26.8333L3.5 22.1667L8.16667 17.5" stroke="#2C33CD" stroke-width="1.16667" stroke-linecap="round" stroke-linejoin="round"/>
<path d="M24.5 15.1667V17.5C24.5 18.7377 24.0083 19.9247 23.1332 20.7999C22.258 21.675 21.071 22.1667 19.8333 22.1667H3.5" stroke="#2C33CD" stroke-width="1.16667" stroke-linecap="round" stroke-linejoin="round"/>
<path d="M16.0574 18V9.492H14.6174C14.4494 10.38 13.5974 11.052 12.3734 11.088V12.216H14.4134V18H16.0574Z" fill="#2C33CD"/>
</svg>
