<svg width="400" height="400" viewBox="0 0 400 400" fill="none" xmlns="http://www.w3.org/2000/svg">
<g clip-path="url(#clip0_98_29)">
<rect width="400" height="400" fill="white"/>
<path d="M101.951 261.232V145.264H130.367C160.063 145.264 184.639 163.952 184.639 203.376C184.639 242.8 159.807 261.232 130.111 261.232H101.951ZM131.391 294C183.103 294 221.247 260.72 221.247 203.376C221.247 146.032 183.359 112.496 131.647 112.496H66.623V294H131.391ZM375.735 155.76C371.639 135.28 354.743 108.656 310.711 108.656C276.407 108.656 247.479 133.232 247.479 165.488C247.479 192.88 266.167 211.568 295.095 217.456L320.439 222.576C334.519 225.392 342.455 233.584 342.455 244.08C342.455 256.88 331.959 266.352 313.015 266.352C287.415 266.352 274.871 250.224 273.335 232.304L240.567 241.008C243.383 266.864 264.631 297.84 312.759 297.84C354.999 297.84 378.295 269.68 378.295 241.776C378.295 216.176 360.631 194.672 327.607 188.272L302.263 183.408C288.951 180.848 282.551 172.912 282.551 162.928C282.551 150.896 293.815 139.888 310.967 139.888C334.007 139.888 342.199 155.504 343.991 165.488L375.735 155.76Z" fill="black"/>
<g clip-path="url(#clip1_98_29)">
<rect x="45" y="72" width="255" height="255" fill="#3936EF"/>
<path d="M101.951 261.232V145.264H130.367C160.063 145.264 184.639 163.952 184.639 203.376C184.639 242.8 159.807 261.232 130.111 261.232H101.951ZM131.391 294C183.103 294 221.247 260.72 221.247 203.376C221.247 146.032 183.359 112.496 131.647 112.496H66.623V294H131.391ZM375.735 155.76C371.639 135.28 354.743 108.656 310.711 108.656C276.407 108.656 247.479 133.232 247.479 165.488C247.479 192.88 266.167 211.568 295.095 217.456L320.439 222.576C334.519 225.392 342.455 233.584 342.455 244.08C342.455 256.88 331.959 266.352 313.015 266.352C287.415 266.352 274.871 250.224 273.335 232.304L240.567 241.008C243.383 266.864 264.631 297.84 312.759 297.84C354.999 297.84 378.295 269.68 378.295 241.776C378.295 216.176 360.631 194.672 327.607 188.272L302.263 183.408C288.951 180.848 282.551 172.912 282.551 162.928C282.551 150.896 293.815 139.888 310.967 139.888C334.007 139.888 342.199 155.504 343.991 165.488L375.735 155.76Z" fill="white"/>
</g>
</g>
<defs>
<clipPath id="clip0_98_29">
<rect width="400" height="400" fill="white"/>
</clipPath>
<clipPath id="clip1_98_29">
<rect width="270" height="259" fill="white" transform="translate(30 70)"/>
</clipPath>
</defs>
</svg>
